<svg width="22" height="22" viewBox="0 0 22 22" fill="none" xmlns="http://www.w3.org/2000/svg">
<path d="M19.9559 8.20269C19.8063 8.14921 19.6696 8.06492 19.5546 7.95528C19.4397 7.84564 19.349 7.71308 19.2885 7.56619C19.2281 7.4193 19.1991 7.26135 19.2035 7.10255C19.2079 6.94376 19.2456 6.78766 19.3142 6.64436C19.5773 6.09074 19.6625 5.46928 19.5583 4.86526C19.4541 4.26124 19.1656 3.70427 18.7322 3.27081C18.2988 2.83734 17.7419 2.54862 17.1379 2.44428C16.5339 2.33993 15.9124 2.42508 15.3588 2.68802C15.2154 2.75643 15.0594 2.79402 14.9006 2.79837C14.7419 2.80271 14.584 2.77371 14.4371 2.71325C14.2903 2.65278 14.1577 2.56218 14.0481 2.44731C13.9384 2.33244 13.854 2.19585 13.8004 2.04636C13.5944 1.46985 13.2151 0.971139 12.7146 0.618532C12.2141 0.265924 11.6168 0.0766602 11.0046 0.0766602C10.3924 0.0766602 9.7951 0.265924 9.2946 0.618532C8.7941 0.971139 8.41484 1.46985 8.20877 2.04636C8.15529 2.19594 8.071 2.33263 7.96135 2.44758C7.85171 2.56253 7.71916 2.65318 7.57227 2.71366C7.42537 2.77415 7.26742 2.80312 7.10863 2.7987C6.94983 2.79429 6.79374 2.75658 6.65043 2.68802C6.09647 2.42299 5.47395 2.33625 4.86864 2.43975C4.26332 2.54325 3.70499 2.8319 3.27055 3.26593C2.83612 3.69996 2.54695 4.25803 2.44289 4.86325C2.33883 5.46847 2.425 6.09106 2.68952 6.64528C2.75822 6.78855 2.79604 6.94467 2.80053 7.10351C2.80502 7.26234 2.77607 7.42035 2.71557 7.56728C2.65507 7.71421 2.56437 7.84678 2.44934 7.95641C2.33431 8.06603 2.19752 8.15025 2.04785 8.20361C1.47175 8.4101 0.973506 8.78951 0.621257 9.28996C0.269009 9.79041 0.0799561 10.3875 0.0799561 10.9994C0.0799561 11.6114 0.269009 12.2085 0.621257 12.7089C0.973506 13.2094 1.47175 13.5888 2.04785 13.7953C2.19784 13.8483 2.335 13.9322 2.45045 14.0417C2.5659 14.1511 2.65705 14.2836 2.71798 14.4305C2.77892 14.5775 2.80829 14.7356 2.80417 14.8946C2.80006 15.0536 2.76255 15.21 2.6941 15.3536C2.43087 15.9069 2.3453 16.5281 2.44915 17.1319C2.553 17.7357 2.84116 18.2926 3.2741 18.7262C3.70704 19.1597 4.26354 19.4487 4.86723 19.5533C5.47092 19.658 6.09221 19.5733 6.64585 19.3109C6.78915 19.2423 6.94525 19.2046 7.10404 19.2002C7.26284 19.1958 7.42079 19.2247 7.56768 19.2852C7.71457 19.3457 7.84713 19.4364 7.95677 19.5513C8.06641 19.6663 8.1507 19.8029 8.20418 19.9525C8.41026 20.529 8.78952 21.0277 9.29002 21.3804C9.79052 21.733 10.3878 21.9222 11 21.9222C11.6123 21.9222 12.2095 21.733 12.71 21.3804C13.2105 21.0277 13.5898 20.529 13.7958 19.9525C13.8493 19.8029 13.9336 19.6663 14.0433 19.5513C14.1529 19.4364 14.2855 19.3457 14.4324 19.2852C14.5792 19.2247 14.7372 19.1958 14.896 19.2002C15.0548 19.2046 15.2109 19.2423 15.3542 19.3109C15.9078 19.5739 16.5293 19.6592 17.1333 19.555C17.7373 19.4508 18.2943 19.1622 18.7277 18.7289C19.1612 18.2955 19.4499 17.7386 19.5543 17.1346C19.6586 16.5306 19.5735 15.9091 19.3105 15.3554C19.2421 15.2121 19.2045 15.056 19.2002 14.8973C19.1958 14.7385 19.2248 14.5806 19.2853 14.4338C19.3458 14.2869 19.4364 14.1544 19.5512 14.0447C19.6661 13.9351 19.8027 13.8507 19.9522 13.7971C20.5287 13.591 21.0274 13.2118 21.38 12.7113C21.7326 12.2108 21.9219 11.6135 21.9219 11.0013C21.9219 10.389 21.7326 9.79177 21.38 9.29128C21.0274 8.79078 20.5287 8.41152 19.9522 8.20544L19.9559 8.20269Z" fill="url(#paint0_linear_578_2597)"/>
<defs>
<linearGradient id="paint0_linear_578_2597" x1="-1.56806" y1="4.04959" x2="15.5406" y2="24.9109" gradientUnits="userSpaceOnUse">
<stop offset="0.447917" stop-color="#8590FF"/>
<stop offset="1" stop-color="#8FFFF9"/>
</linearGradient>
</defs>
</svg>
