<svg width="14" height="14" viewBox="0 0 14 14" fill="none" xmlns="http://www.w3.org/2000/svg">
<g clip-path="url(#clip0_706_2193)">
<path d="M13.5676 9.44996L12.051 3.98354C11.7271 2.8142 11.0214 1.78679 10.0462 1.06483C9.07103 0.342863 7.88236 -0.0321671 6.66941 -0.000573999C5.45646 0.0310191 4.28894 0.46742 3.35265 1.23917C2.41636 2.01093 1.76511 3.07368 1.50256 4.25829L0.329473 9.53746C0.27271 9.79322 0.274095 10.0585 0.333524 10.3136C0.392954 10.5688 0.508912 10.8073 0.672843 11.0117C0.836774 11.216 1.0445 11.381 1.28068 11.4943C1.51687 11.6077 1.77549 11.6666 2.03747 11.6666H4.14156C4.27544 12.326 4.63315 12.9187 5.15407 13.3445C5.675 13.7703 6.3271 14.0029 6.99989 14.0029C7.67268 14.0029 8.32478 13.7703 8.84571 13.3445C9.36663 12.9187 9.72434 12.326 9.85822 11.6666H11.8824C12.152 11.6665 12.4178 11.6041 12.6593 11.4843C12.9008 11.3645 13.1113 11.1905 13.2745 10.976C13.4377 10.7614 13.5491 10.5121 13.6001 10.2474C13.651 9.98266 13.6401 9.70976 13.5682 9.44996H13.5676ZM6.99989 12.8333C6.63924 12.8318 6.28786 12.7189 5.99381 12.5101C5.69977 12.3012 5.47744 12.0067 5.35722 11.6666H8.64256C8.52234 12.0067 8.3 12.3012 8.00596 12.5101C7.71192 12.7189 7.36054 12.8318 6.99989 12.8333ZM12.3461 10.2695C12.2917 10.3417 12.2212 10.4001 12.1401 10.4401C12.0591 10.4801 11.9698 10.5006 11.8795 10.5H2.03747C1.95013 10.4999 1.8639 10.4803 1.78515 10.4425C1.7064 10.4047 1.63715 10.3497 1.5825 10.2816C1.52786 10.2134 1.48921 10.1339 1.46942 10.0488C1.44962 9.96375 1.44919 9.87531 1.46814 9.79004L2.64122 4.51088C2.84793 3.58116 3.35949 2.74723 4.09457 2.14164C4.82966 1.53605 5.74609 1.19356 6.69817 1.16862C7.65026 1.14368 8.58336 1.43771 9.34915 2.00398C10.1149 2.57026 10.6695 3.37626 10.9246 4.29388L12.4412 9.76029C12.466 9.84673 12.4703 9.93775 12.4538 10.0261C12.4373 10.1145 12.4004 10.1979 12.3461 10.2695Z" fill="#79D5CF"/>
</g>
<defs>
<clipPath id="clip0_706_2193">
<rect width="14" height="14" fill="white"/>
</clipPath>
</defs>
</svg>
