<svg width="18" height="22" viewBox="0 0 18 22" fill="none" xmlns="http://www.w3.org/2000/svg">
<path d="M11.75 21.9998C10.2096 21.9986 8.68646 21.6744 7.27902 21.0483C5.87158 20.4221 4.61108 19.5077 3.57885 18.3643C2.53883 17.2195 1.75415 15.8666 1.27687 14.3954C0.799588 12.9242 0.640622 11.3683 0.810518 9.831C1.08442 7.43852 2.12813 5.19976 3.78452 3.45178C5.4409 1.70381 7.6203 0.541234 9.9946 0.139087C11.5295 -0.0979856 13.0958 -0.034161 14.6064 0.327004C15.0019 0.428625 15.3631 0.634091 15.6525 0.922142C15.942 1.21019 16.1493 1.57036 16.2528 1.96538C16.3564 2.36041 16.3525 2.77593 16.2416 3.16895C16.1307 3.56198 15.9168 3.91823 15.622 4.20084C11.442 8.01967 11.805 13.9578 16.3618 17.41C16.684 17.6629 16.9325 17.9975 17.0815 18.379C17.2305 18.7605 17.2745 19.175 17.209 19.5793C17.1435 19.9836 16.9708 20.3629 16.709 20.6779C16.4471 20.9928 16.1057 21.2318 15.7201 21.37C14.4384 21.7887 13.0984 22.0013 11.75 21.9998Z" fill="url(#paint0_linear_578_2587)"/>
<defs>
<linearGradient id="paint0_linear_578_2587" x1="-0.5" y1="3.99997" x2="17" y2="20" gradientUnits="userSpaceOnUse">
<stop offset="0.447917" stop-color="#8590FF"/>
<stop offset="1" stop-color="#8FFFF9"/>
</linearGradient>
</defs>
</svg>
