<svg width="22" height="22" viewBox="0 0 22 22" fill="none" xmlns="http://www.w3.org/2000/svg">
<g clip-path="url(#clip0_578_2581)">
<path d="M13.75 21.9998C12.2096 21.9986 10.6865 21.6744 9.27902 21.0483C7.87158 20.4221 6.61108 19.5077 5.57885 18.3643C4.53883 17.2195 3.75415 15.8666 3.27687 14.3954C2.79959 12.9242 2.64062 11.3683 2.81052 9.831C3.08442 7.43852 4.12813 5.19976 5.78452 3.45178C7.4409 1.70381 9.6203 0.541234 11.9946 0.139087C13.5295 -0.0979856 15.0958 -0.034161 16.6064 0.327004C17.0019 0.428625 17.3631 0.634091 17.6525 0.922142C17.942 1.21019 18.1493 1.57036 18.2528 1.96538C18.3564 2.36041 18.3525 2.77593 18.2416 3.16895C18.1307 3.56198 17.9168 3.91823 17.622 4.20084C13.442 8.01967 13.805 13.9578 18.3618 17.41C18.684 17.6629 18.9325 17.9975 19.0815 18.379C19.2305 18.7605 19.2745 19.175 19.209 19.5793C19.1435 19.9836 18.9708 20.3629 18.709 20.6779C18.4471 20.9928 18.1057 21.2318 17.7201 21.37C16.4384 21.7887 15.0984 22.0013 13.75 21.9998Z" fill="#627092"/>
</g>
<defs>
<clipPath id="clip0_578_2581">
<rect width="22" height="22" fill="white"/>
</clipPath>
</defs>
</svg>
