<svg width="44" height="44" viewBox="0 0 44 44" fill="none"
  xmlns="http://www.w3.org/2000/svg">
  <rect width="44" height="44" rx="12" fill="white" fill-opacity="0.3"/>
  <defs>
    <clipPath id="clip0_578_1874">
      <rect width="22" height="22" fill="white" transform="translate(11 11)"/>
    </clipPath>
  </defs>
  <g clip-path="url(#clip0_578_1874)">
    <path d="M21.0896 13.3633L21.0832 27.5148C21.0832 27.7579 21.1797 27.9911 21.3517 28.163C21.5236 28.3349 21.7567 28.4314 21.9998 28.4314C22.243 28.4314 22.4761 28.3349 22.648 28.163C22.8199 27.9911 22.9165 27.7579 22.9165 27.5148L22.9229 13.3789L25.5923 16.0491C25.7642 16.221 25.9973 16.3175 26.2403 16.3175C26.4834 16.3175 26.7165 16.221 26.8884 16.0491C27.0603 15.8772 27.1568 15.6441 27.1568 15.401C27.1568 15.158 27.0603 14.9248 26.8884 14.7529L23.945 11.8059C23.6896 11.5503 23.3864 11.3476 23.0526 11.2093C22.7189 11.071 22.3611 10.9998 21.9998 10.9998C21.6386 10.9998 21.2808 11.071 20.947 11.2093C20.6133 11.3476 20.3101 11.5503 20.0547 11.8059L17.1113 14.7502C16.9394 14.9221 16.8429 15.1552 16.8429 15.3983C16.8429 15.6413 16.9394 15.8745 17.1113 16.0464C17.2832 16.2182 17.5163 16.3148 17.7593 16.3148C18.0024 16.3148 18.2355 16.2182 18.4074 16.0464L21.0896 13.3633Z" fill="white"/>
    <path d="M31.1667 26.5828V30.2494C31.1667 30.4925 31.0701 30.7257 30.8982 30.8976C30.7263 31.0695 30.4931 31.1661 30.25 31.1661H13.75C13.5069 31.1661 13.2737 31.0695 13.1018 30.8976C12.9299 30.7257 12.8333 30.4925 12.8333 30.2494V26.5828C12.8333 26.3397 12.7368 26.1065 12.5648 25.9346C12.3929 25.7627 12.1598 25.6661 11.9167 25.6661C11.6736 25.6661 11.4404 25.7627 11.2685 25.9346C11.0966 26.1065 11 26.3397 11 26.5828V30.2494C11 30.9788 11.2897 31.6782 11.8055 32.194C12.3212 32.7097 13.0207 32.9994 13.75 32.9994H30.25C30.9793 32.9994 31.6788 32.7097 32.1945 32.194C32.7103 31.6782 33 30.9788 33 30.2494V26.5828C33 26.3397 32.9034 26.1065 32.7315 25.9346C32.5596 25.7627 32.3264 25.6661 32.0833 25.6661C31.8402 25.6661 31.6071 25.7627 31.4352 25.9346C31.2632 26.1065 31.1667 26.3397 31.1667 26.5828Z" fill="white"/>
  </g>
</svg>
