<svg width="36" height="36" viewBox="0 0 36 36" fill="none" xmlns="http://www.w3.org/2000/svg">
<g clip-path="url(#clip0_706_1206)">
<path d="M7.00122 10.7507H9.73695C10.2769 12.7374 12.3251 13.9102 14.3117 13.3702C15.5877 13.0234 16.5844 12.0267 16.9312 10.7507H28.999C29.5512 10.7507 29.9989 10.3031 29.9989 9.75086C29.9989 9.19863 29.5512 8.75097 28.999 8.75097H16.9312C16.3913 6.76428 14.3431 5.59149 12.3564 6.13144C11.0805 6.47823 10.0837 7.47498 9.73695 8.75093H7.00122C6.44899 8.75093 6.00134 9.19859 6.00134 9.75081C6.00134 10.303 6.44899 10.7507 7.00122 10.7507Z" fill="white"/>
<path d="M28.999 17.0006H26.2633C25.7244 15.0142 23.6774 13.8408 21.691 14.3796C20.414 14.726 19.4164 15.7236 19.07 17.0006H7.00122C6.44899 17.0006 6.00133 17.4483 6.00133 18.0005C6.00133 18.5527 6.44899 19.0004 7.00122 19.0004H19.07C19.6089 20.9867 21.6559 22.1602 23.6423 21.6214C24.9193 21.2749 25.9169 20.2774 26.2633 19.0004H28.999C29.5512 19.0004 29.9989 18.5527 29.9989 18.0005C29.9989 17.4483 29.5512 17.0006 28.999 17.0006Z" fill="white"/>
<path d="M28.999 25.2493H16.9312C16.3913 23.2627 14.3431 22.0899 12.3564 22.6299C11.0805 22.9766 10.0837 23.9734 9.73694 25.2493H7.00122C6.44899 25.2493 6.00133 25.697 6.00133 26.2492C6.00133 26.8014 6.44899 27.2491 7.00122 27.2491H9.73694C10.2769 29.2357 12.3251 30.4085 14.3117 29.8686C15.5877 29.5218 16.5844 28.5251 16.9312 27.2491H28.999C29.5512 27.2491 29.9989 26.8014 29.9989 26.2492C29.9989 25.697 29.5512 25.2493 28.999 25.2493Z" fill="white"/>
</g>
<defs>
<clipPath id="clip0_706_1206">
<rect width="24" height="24" fill="white" transform="translate(6 6)"/>
</clipPath>
</defs>
</svg>
