<svg width="115" height="44" viewBox="0 0 115 44" fill="none"
  xmlns="http://www.w3.org/2000/svg">
  <rect width="115" height="44" rx="12" fill="white"/>
  <defs>
    <clipPath id="clip0_578_1868">
      <rect width="22" height="22" fill="white" transform="translate(10 11)"/>
    </clipPath>
  </defs>
  <g clip-path="url(#clip0_578_1868)">
    <path d="M21 12.9809C23.9391 12.9809 24.2871 12.9937 25.443 13.0453C26.5172 13.0926 27.0973 13.273 27.484 13.4234C27.9953 13.6211 28.3648 13.8617 28.7473 14.2441C29.134 14.6309 29.3703 14.9961 29.568 15.5074C29.7184 15.8941 29.8988 16.4785 29.9461 17.5484C29.9977 18.7086 30.0105 19.0566 30.0105 21.9914C30.0105 24.9305 29.9977 25.2785 29.9461 26.4344C29.8988 27.5086 29.7184 28.0887 29.568 28.4754C29.3703 28.9867 29.1297 29.3563 28.7473 29.7387C28.3605 30.1254 27.9953 30.3617 27.484 30.5594C27.0973 30.7098 26.5129 30.8902 25.443 30.9375C24.2828 30.9891 23.9348 31.002 21 31.002C18.0609 31.002 17.7129 30.9891 16.557 30.9375C15.4828 30.8902 14.9027 30.7098 14.516 30.5594C14.0047 30.3617 13.6352 30.1211 13.2527 29.7387C12.866 29.352 12.6297 28.9867 12.432 28.4754C12.2816 28.0887 12.1012 27.5043 12.0539 26.4344C12.0023 25.2742 11.9895 24.9262 11.9895 21.9914C11.9895 19.0523 12.0023 18.7043 12.0539 17.5484C12.1012 16.4742 12.2816 15.8941 12.432 15.5074C12.6297 14.9961 12.8703 14.6266 13.2527 14.2441C13.6395 13.8574 14.0047 13.6211 14.516 13.4234C14.9027 13.273 15.4871 13.0926 16.557 13.0453C17.7129 12.9937 18.0609 12.9809 21 12.9809ZM21 11C18.0137 11 17.6398 11.0129 16.4668 11.0645C15.298 11.116 14.4945 11.3051 13.7984 11.5758C13.0723 11.8594 12.4578 12.2332 11.8477 12.8477C11.2332 13.4578 10.8594 14.0723 10.5758 14.7941C10.3051 15.4945 10.116 16.2937 10.0645 17.4625C10.0129 18.6398 10 19.0137 10 22C10 24.9863 10.0129 25.3602 10.0645 26.5332C10.116 27.702 10.3051 28.5055 10.5758 29.2016C10.8594 29.9277 11.2332 30.5422 11.8477 31.1523C12.4578 31.7625 13.0723 32.1406 13.7941 32.4199C14.4945 32.6906 15.2937 32.8797 16.4625 32.9312C17.6355 32.9828 18.0094 32.9957 20.9957 32.9957C23.982 32.9957 24.3559 32.9828 25.5289 32.9312C26.6977 32.8797 27.5012 32.6906 28.1973 32.4199C28.9191 32.1406 29.5336 31.7625 30.1437 31.1523C30.7539 30.5422 31.132 29.9277 31.4113 29.2059C31.682 28.5055 31.8711 27.7063 31.9227 26.5375C31.9742 25.3645 31.9871 24.9906 31.9871 22.0043C31.9871 19.018 31.9742 18.6441 31.9227 17.4711C31.8711 16.3023 31.682 15.4988 31.4113 14.8027C31.1406 14.0723 30.7668 13.4578 30.1523 12.8477C29.5422 12.2375 28.9277 11.8594 28.2059 11.5801C27.5055 11.3094 26.7062 11.1203 25.5375 11.0688C24.3602 11.0129 23.9863 11 21 11Z" fill="#1F2638"/>
    <path d="M21 16.3496C17.8805 16.3496 15.3496 18.8805 15.3496 22C15.3496 25.1195 17.8805 27.6504 21 27.6504C24.1195 27.6504 26.6504 25.1195 26.6504 22C26.6504 18.8805 24.1195 16.3496 21 16.3496ZM21 25.6652C18.9762 25.6652 17.3348 24.0238 17.3348 22C17.3348 19.9762 18.9762 18.3348 21 18.3348C23.0238 18.3348 24.6652 19.9762 24.6652 22C24.6652 24.0238 23.0238 25.6652 21 25.6652Z" fill="#1F2638"/>
    <path d="M28.193 16.1262C28.193 16.8567 27.6 17.4453 26.8738 17.4453C26.1434 17.4453 25.5547 16.8524 25.5547 16.1262C25.5547 15.3957 26.1477 14.807 26.8738 14.807C27.6 14.807 28.193 15.4 28.193 16.1262Z" fill="#1F2638"/>
  </g>
  <path d="M41.0703 27.5V16.2266H43.0781V24.1953H43.1016L48.6172 16.2266H50.4219V27.5H48.4219V19.5234H48.3906L42.875 27.5H41.0703ZM56.0156 27.6641C53.5547 27.6641 52.0156 26.0078 52.0156 23.3516V23.3438C52.0156 20.7031 53.5781 19.0469 56 19.0469C58.1797 19.0469 59.5312 20.4297 59.6484 22.0859L59.6562 22.1484H57.8203L57.8125 22.0781C57.6484 21.2734 57.0547 20.625 56.0156 20.625C54.7891 20.625 54 21.6641 54 23.3594V23.3672C54 25.0938 54.7969 26.0938 56.0312 26.0938C57.0156 26.0938 57.6328 25.5078 57.8125 24.6406L57.8281 24.5703H59.6641V24.625C59.5156 26.3516 58.1094 27.6641 56.0156 27.6641ZM67.2578 19.2188V20.7266H64.7188V27.5H62.7734V20.7266H60.2344V19.2188H67.2578ZM71.9609 27.6641C69.5234 27.6641 67.9531 26.0391 67.9531 23.3594V23.3438C67.9531 20.6875 69.5469 19.0469 71.9609 19.0469C74.3672 19.0469 75.9688 20.6719 75.9688 23.3438V23.3594C75.9688 26.0469 74.3906 27.6641 71.9609 27.6641ZM71.9688 26.0938C73.2031 26.0938 73.9922 25.0938 73.9922 23.3594V23.3438C73.9922 21.6172 73.1875 20.625 71.9609 20.625C70.7422 20.625 69.9375 21.625 69.9375 23.3438V23.3594C69.9375 25.1016 70.7344 26.0938 71.9688 26.0938ZM77.3594 30.2344V19.2188H79.3047V20.6484H79.3516C79.8203 19.6562 80.7344 19.0469 81.9141 19.0469C84.0234 19.0469 85.3438 20.6875 85.3438 23.3594V23.3672C85.3438 26.0234 84.0156 27.6641 81.9453 27.6641C80.7656 27.6641 79.8203 27.0703 79.3438 26.1016H79.3047V30.2344H77.3594ZM81.3359 26.0234C82.5859 26.0234 83.3594 25 83.3594 23.3672V23.3594C83.3594 21.7031 82.5781 20.6875 81.3359 20.6875C80.1328 20.6875 79.2969 21.7344 79.2969 23.3594V23.3672C79.2969 24.9844 80.1406 26.0234 81.3359 26.0234ZM86.7422 27.5V19.2188H88.6641V24.7422H88.7422L92.3125 19.2188H94.2188V27.5H92.2969V21.9375H92.2188L88.6484 27.5H86.7422ZM95.9609 27.5V19.2188H97.8828V24.7422H97.9609L101.531 19.2188H103.438V27.5H101.516V21.9375H101.438L97.8672 27.5H95.9609Z" fill="#1F2638"/>
</svg>
