<svg width="24" height="25" viewBox="0 0 24 25" fill="none" xmlns="http://www.w3.org/2000/svg">
<g clip-path="url(#clip0_628_2020)">
<path d="M12 0.5C9.62663 0.5 7.30655 1.20379 5.33316 2.52236C3.35977 3.84094 1.8217 5.71509 0.913451 7.9078C0.00519943 10.1005 -0.232441 12.5133 0.230582 14.8411C0.693605 17.1689 1.83649 19.3071 3.51472 20.9853C5.19295 22.6635 7.33115 23.8064 9.65892 24.2694C11.9867 24.7324 14.3995 24.4948 16.5922 23.5866C18.7849 22.6783 20.6591 21.1402 21.9776 19.1668C23.2962 17.1935 24 14.8734 24 12.5C23.9966 9.31846 22.7312 6.26821 20.4815 4.01852C18.2318 1.76883 15.1815 0.503441 12 0.5V0.5ZM12 22.5C10.0222 22.5 8.08879 21.9135 6.4443 20.8147C4.79981 19.7159 3.51809 18.1541 2.76121 16.3268C2.00433 14.4996 1.8063 12.4889 2.19215 10.5491C2.578 8.60929 3.53041 6.82746 4.92894 5.42893C6.32746 4.03041 8.10929 3.078 10.0491 2.69215C11.9889 2.3063 13.9996 2.50433 15.8268 3.2612C17.6541 4.01808 19.2159 5.29981 20.3147 6.9443C21.4135 8.58879 22 10.5222 22 12.5C21.9971 15.1513 20.9426 17.6931 19.0679 19.5679C17.1931 21.4426 14.6513 22.4971 12 22.5Z" fill="white"/>
<path d="M11.9998 10.5003H10.9998C10.7346 10.5003 10.4802 10.6057 10.2927 10.7932C10.1052 10.9807 9.99982 11.2351 9.99982 11.5003C9.99982 11.7655 10.1052 12.0199 10.2927 12.2074C10.4802 12.3949 10.7346 12.5003 10.9998 12.5003H11.9998V18.5003C11.9998 18.7655 12.1052 19.0199 12.2927 19.2074C12.4802 19.3949 12.7346 19.5003 12.9998 19.5003C13.265 19.5003 13.5194 19.3949 13.7069 19.2074C13.8945 19.0199 13.9998 18.7655 13.9998 18.5003V12.5003C13.9998 11.9699 13.7891 11.4612 13.414 11.0861C13.039 10.711 12.5302 10.5003 11.9998 10.5003Z" fill="white"/>
<path d="M12 8.49969C12.8284 8.49969 13.5 7.82812 13.5 6.99969C13.5 6.17127 12.8284 5.49969 12 5.49969C11.1716 5.49969 10.5 6.17127 10.5 6.99969C10.5 7.82812 11.1716 8.49969 12 8.49969Z" fill="white"/>
</g>
<defs>
<clipPath id="clip0_628_2020">
<rect width="24" height="24" fill="white" transform="translate(0 0.5)"/>
</clipPath>
</defs>
</svg>
