<svg width="44" height="44" viewBox="0 0 44 44" fill="none" xmlns="http://www.w3.org/2000/svg">
<rect width="44" height="44" rx="12" fill="white" fill-opacity="0.3"/>
<g clip-path="url(#clip0_578_1876)">
<path d="M27.0417 12.7568C26.0094 12.7729 24.9997 13.061 24.1145 13.5922C23.2293 14.1233 22.4999 14.8786 22 15.7818C21.5001 14.8786 20.7707 14.1233 19.8855 13.5922C19.0002 13.061 17.9905 12.7729 16.9583 12.7568C15.3129 12.8283 13.7626 13.5482 12.6461 14.759C11.5297 15.9699 10.9379 17.5735 11 19.2193C11 23.3874 15.3872 27.9396 19.0667 31.026C19.8882 31.7164 20.9269 32.0949 22 32.0949C23.0731 32.0949 24.1118 31.7164 24.9333 31.026C28.6128 27.9396 33 23.3874 33 19.2193C33.0621 17.5735 32.4703 15.9699 31.3539 14.759C30.2374 13.5482 28.6871 12.8283 27.0417 12.7568ZM23.7554 29.6235C23.2641 30.0373 22.6423 30.2642 22 30.2642C21.3576 30.2642 20.7359 30.0373 20.2446 29.6235C15.5347 25.6718 12.8333 21.8804 12.8333 19.2193C12.7707 18.0595 13.1692 16.9219 13.9419 16.0547C14.7147 15.1875 15.799 14.6611 16.9583 14.5902C18.1177 14.6611 19.202 15.1875 19.9747 16.0547C20.7475 16.9219 21.146 18.0595 21.0833 19.2193C21.0833 19.4625 21.1799 19.6956 21.3518 19.8675C21.5237 20.0394 21.7569 20.136 22 20.136C22.2431 20.136 22.4763 20.0394 22.6482 19.8675C22.8201 19.6956 22.9167 19.4625 22.9167 19.2193C22.854 18.0595 23.2525 16.9219 24.0252 16.0547C24.798 15.1875 25.8823 14.6611 27.0417 14.5902C28.201 14.6611 29.2853 15.1875 30.0581 16.0547C30.8308 16.9219 31.2293 18.0595 31.1667 19.2193C31.1667 21.8804 28.4652 25.6718 23.7554 29.6198V29.6235Z" fill="white"/>
</g>
<defs>
<clipPath id="clip0_578_1876">
<rect width="22" height="22" fill="white" transform="translate(11 11)"/>
</clipPath>
</defs>
</svg>
