<svg width="20" height="21" viewBox="0 0 20 21" fill="none" xmlns="http://www.w3.org/2000/svg">
<circle cx="10.5" cy="10.5" r="9.5" fill="#EEF6F7"/>
<g filter="url(#filter0_f_706_1260)">
<path d="M1.47314 10.7005C1.47314 6.57366 4.1512 3.07755 7.85047 1.88287C8.79689 4.73941 8.8464 10.5021 1.47314 10.7005Z" fill="white"/>
</g>
<path d="M15.9908 3.75339C14.0437 6.11653 13.9069 3.37095 14.0819 1.70276C16.1524 2.54 17.8569 4.093 18.8886 6.05502C18.8579 6.38293 18.7755 7.01063 18.6911 6.89809C18.6067 6.78555 18.3355 6.94498 18.2105 7.03876C18.0972 7.17162 17.8026 7.44671 17.5306 7.48423C17.1906 7.53112 17.05 6.94498 16.921 6.7457C16.8178 6.58627 17.0578 6.10095 17.1906 5.87822C16.9913 5.16313 16.4755 5.43276 16.1473 4.92868C15.8847 4.52542 15.9336 3.97713 15.9908 3.75339Z" fill="#C4CFD1"/>
<path d="M18.1363 7.89627C18.2416 7.96647 18.7799 7.86702 19.0358 7.80852C19.0358 8.30211 19.2771 9.91454 18.6911 10.6495C18.1052 11.3844 17.5306 10.8688 17.5879 10.5836C17.6338 10.3555 17.5266 9.91088 17.4672 9.7171C17.0724 8.65312 18.0047 7.80852 18.1363 7.89627Z" fill="#C4CFD1"/>
<path d="M17.5879 13.366C17.7575 13.3517 18.394 12.481 18.6911 12.0474C19.151 12.3058 18.8015 12.8938 18.1511 13.5709C17.5007 14.248 17.376 13.3838 17.5879 13.366Z" fill="#C4CFD1"/>
<path d="M17.4224 14.1032C17.5703 14.1897 17.7774 14.4214 17.4224 14.6565C16.9786 14.9505 17.0881 13.9591 17.4224 14.1032Z" fill="#C4CFD1"/>
<path d="M18.2389 14.5708C18.4556 14.218 18.2706 14.233 18.1511 14.2845C17.6362 14.741 16.7348 15.6447 17.2485 15.6076C17.8907 15.5612 17.9681 15.0118 18.2389 14.5708Z" fill="#C4CFD1"/>
<path d="M16.0733 16.1553C16.1167 16.3226 16.2683 16.5762 16.527 16.2518C16.8503 15.8464 15.9083 15.9133 16.0733 16.1553Z" fill="#C4CFD1"/>
<path d="M14.4176 14.7054C14.1819 14.8433 13.8358 15.1418 14.3376 15.2325C14.9648 15.346 14.6112 14.6253 14.4176 14.7054Z" fill="#C4CFD1"/>
<path d="M12.5765 16.5842C12.2679 16.7788 11.6747 17.2586 11.7713 17.6209C11.8921 18.0738 13.8246 17.5001 12.5765 16.5842Z" fill="#C4CFD1"/>
<path d="M8.99886 18.8324C9.04969 19.1205 9.33738 19.602 10.0815 19.2238C10.129 18.9866 9.97886 18.5763 8.99886 18.8324Z" fill="#C4CFD1"/>
<path d="M8.37496 18.0507C8.29317 18.2668 8.2563 18.6462 8.76315 18.4352C9.39672 18.1716 8.37496 17.4831 8.37496 18.0507Z" fill="#C4CFD1"/>
<path d="M8.19649 16.396C8.43818 16.9986 9.21544 18.0646 10.391 17.5078C11.8605 16.8117 10.1977 14.2208 8.19649 16.396Z" fill="#C4CFD1"/>
<path d="M5.90089 14.2893C5.8702 14.5422 6.22128 14.9954 6.68823 14.3655C6.74349 14.0521 5.93158 14.0365 5.90089 14.2893Z" fill="#C4CFD1"/>
<path d="M3.88926 13.8418C3.77507 14.2283 3.74037 14.9643 4.5151 14.8168C4.61392 14.3426 4.6271 13.4837 3.88926 13.8418Z" fill="#C4CFD1"/>
<path d="M2.8449 11.7945C2.67561 11.7685 2.73096 11.0132 2.77979 10.6388C2.06356 10.4955 2.14495 11.4635 2.27518 11.9654C2.171 13.6127 2.8449 14.2118 3.37393 13.5688C3.90297 12.6328 3.05652 11.8271 2.8449 11.7945Z" fill="#C4CFD1"/>
<path d="M1.99605 8.70767C1.57595 7.9037 2.3435 6.75509 2.77979 6.28128C3.0881 6.28128 2.68151 7.15043 2.43968 7.58501C2.46684 8.29422 2.41614 9.51164 1.99605 8.70767Z" fill="#C4CFD1"/>
<path d="M4.83342 6.59207C4.97762 6.57543 5.05526 6.34482 5.07605 6.23159C5.4199 6.00976 5.15462 6.62442 4.979 6.95949C5.17865 8.05202 4.77565 8.09407 4.5492 7.97853C3.76585 6.93869 4.65318 6.61287 4.83342 6.59207Z" fill="#C4CFD1"/>
<path d="M5.53362 5.90699C5.65727 6.02588 5.93882 6.19234 6.07578 5.90699C6.24699 5.5503 5.31247 5.65017 5.53362 5.90699Z" fill="#C4CFD1"/>
<path d="M3.3415 5.26044C3.52754 5.13434 3.84382 5.01238 3.62057 5.53331C3.46139 5.63046 3.18274 5.71191 3.3415 5.26044Z" fill="#C4CFD1"/>
<path d="M11.1069 1.0361C10.9252 1.02564 10.7421 1.02034 10.5578 1.02034C8.57091 1.02034 6.72793 1.63636 5.2094 2.68782C4.56512 3.54863 5.09647 3.8359 5.44268 3.87194C5.95848 3.90633 7.09323 3.95447 7.50587 3.87194C7.91851 3.78941 8.19047 3.28112 8.27488 3.03729C8.64375 3.19046 9.51467 3.44805 10.0473 3.25298C10.58 3.05792 10.4917 2.51276 10.3809 2.26457C11.1626 2.01285 11.1906 1.34071 11.1069 1.0361Z" fill="#C4CFD1"/>
<path d="M12.9834 1.8033C12.6133 1.27593 11.665 1.45249 11.2371 1.60669C11.0405 2.27747 11.5378 2.26457 11.746 2.26457C11.9125 2.26457 11.9002 2.55073 11.8732 2.69381C10.7629 2.47407 10.7976 2.90198 10.8323 3.17954C10.867 3.45711 12.3242 4.05849 12.5324 4.09319C12.7405 4.12788 13.712 4.15101 13.5848 3.03729C13.4576 1.92356 12.5208 2.63598 12.3242 2.61285C12.1669 2.59435 12.2587 2.37295 12.3242 2.26457C12.8423 2.05996 12.9796 1.8718 12.9834 1.8033Z" fill="#C4CFD1"/>
<path d="M13.5848 4.21093C13.4311 4.57696 12.6804 4.53052 12.3242 4.46154C11.32 4.92318 11.9567 6.05502 12.8668 6.05502C13.7769 6.05502 13.7901 5.52992 14.1198 5.13422C14.4496 4.73853 13.7769 3.75339 13.5848 4.21093Z" fill="#C4CFD1"/>
<path d="M15.8981 6.05502C14.8178 5.01417 14.1615 6.08178 13.9685 6.7457C13.9685 6.79649 14.0215 6.96714 14.2336 7.24332C14.4457 7.5195 14.2461 7.79369 14.1198 7.89627C14.1198 7.73263 14.0748 7.42113 13.8948 7.48423C13.6698 7.5631 13.7328 7.16967 13.5848 6.81614C13.4664 6.53331 13.2806 6.60991 13.2025 6.68356C13.0021 6.25933 12.6723 6.39878 12.5324 6.52153C12.4559 6.91582 11.7295 6.68582 11.3759 6.52153C10.2194 6.86033 10.3742 8.06822 11.1697 8.42175C11.806 8.70458 12.1321 8.30391 12.2155 8.06822C12.2892 7.87356 12.4365 7.60103 12.4365 8.06822C12.4365 8.53542 12.7233 8.49857 12.8668 8.42175C13.3008 8.91234 12.8884 8.96987 12.628 8.93732C12.3776 8.80965 11.7353 8.67806 11.1697 9.173C10.4626 9.79168 10.9045 11.5593 12.2155 11.4415C13.5265 11.3236 13.2761 10.0716 13.2025 9.90952C13.1436 9.77989 13.3449 9.72723 13.4529 9.7171C13.4529 9.78124 13.556 9.90952 13.9685 9.90952C14.3809 9.90952 14.5135 9.63455 14.5282 9.49707C14.375 8.94321 14.592 8.81456 14.7197 8.81947C14.7884 8.85875 14.9318 9.04927 14.9554 9.49707C14.979 9.94488 15.3678 9.83034 15.5593 9.7171C15.6723 9.55538 15.8981 9.32896 15.8981 9.7171C15.8981 10.1052 16.1338 10.0071 16.2517 9.90952C16.3352 9.61491 16.473 9.78677 16.5315 9.90952C16.4677 9.96353 16.4196 10.1128 16.7378 10.2778C17.0559 10.4428 17.2109 10.209 17.2485 10.0716C17.2485 9.95341 17.183 9.7171 16.921 9.7171C16.5935 9.7171 16.6494 9.43815 16.7378 9.49707C16.8085 9.54421 16.9833 9.41851 17.0618 9.34977C17.1241 9.14354 17.183 8.74877 16.921 8.81947C16.659 8.89018 16.6308 8.50522 16.6494 8.30391C17.1515 7.72942 16.6199 7.03876 16.4432 6.89809C16.3018 6.78555 16.0209 6.94498 15.8981 7.03876C16.0749 6.68239 15.9718 6.23444 15.8981 6.05502Z" fill="#C4CFD1"/>
<path d="M13.5848 12.1916C13.09 12.7124 12.4592 13.8238 13.8948 14.1032C14.6468 13.466 15.6375 12.1916 13.5848 12.1916Z" fill="#C4CFD1"/>
<path d="M6.68823 10.7217C6.68823 10.2438 8.16029 9.174 8.89631 8.69884C9.47193 8.50807 9.50723 8.89087 9.45293 9.10612C10.0394 9.52969 9.69729 9.8709 9.45293 9.98856C9.30359 10.165 9.45293 11.0068 9.45293 11.5226C9.45293 11.9353 8.68362 12.2648 8.29897 12.3779C6.24901 13.0567 6.68823 11.319 6.68823 10.7217Z" fill="#C4CFD1"/>
<path d="M10.0978 10.7765C10.0029 11.2974 10.0085 12.1469 10.7907 11.377C10.937 11.0126 11.0032 10.3823 10.0978 10.7765Z" fill="#C4CFD1"/>
<g filter="url(#filter1_f_706_1260)">
<path fill-rule="evenodd" clip-rule="evenodd" d="M10.5 1C5.25329 1 1 5.25329 1 10.5C1 15.7467 5.25329 20 10.5 20C13.0453 12.5957 13.0179 8.43215 10.5 1Z" fill="#4A4A67"/>
</g>
<defs>
<filter id="filter0_f_706_1260" x="0.760645" y="1.17037" width="8.24437" height="10.2426" filterUnits="userSpaceOnUse" color-interpolation-filters="sRGB">
<feFlood flood-opacity="0" result="BackgroundImageFix"/>
<feBlend mode="normal" in="SourceGraphic" in2="BackgroundImageFix" result="shape"/>
<feGaussianBlur stdDeviation="0.35625" result="effect1_foregroundBlur_706_1260"/>
</filter>
<filter id="filter1_f_706_1260" x="0" y="0" width="13.3987" height="21" filterUnits="userSpaceOnUse" color-interpolation-filters="sRGB">
<feFlood flood-opacity="0" result="BackgroundImageFix"/>
<feBlend mode="normal" in="SourceGraphic" in2="BackgroundImageFix" result="shape"/>
<feGaussianBlur stdDeviation="0.5" result="effect1_foregroundBlur_706_1260"/>
</filter>
</defs>
</svg>
