<svg width="38" height="38" viewBox="0 0 38 38" fill="none"
  xmlns="http://www.w3.org/2000/svg">
  <defs>
    <clipPath id="clip0_578_1956">
      <rect width="24" height="24" fill="white" transform="translate(7 7)"/>
    </clipPath>
  </defs>
  <g clip-path="url(#clip0_578_1956)">
    <path d="M9 21.0003C10.1046 21.0003 11 20.1049 11 19.0003C11 17.8957 10.1046 17.0003 9 17.0003C7.89543 17.0003 7 17.8957 7 19.0003C7 20.1049 7.89543 21.0003 9 21.0003Z" fill="white"/>
    <path d="M19.0001 21.0003C20.1046 21.0003 21.0001 20.1049 21.0001 19.0003C21.0001 17.8957 20.1046 17.0003 19.0001 17.0003C17.8955 17.0003 17.0001 17.8957 17.0001 19.0003C17.0001 20.1049 17.8955 21.0003 19.0001 21.0003Z" fill="white"/>
    <path d="M29 21.0003C30.1045 21.0003 31 20.1049 31 19.0003C31 17.8957 30.1045 17.0003 29 17.0003C27.8954 17.0003 26.9999 17.8957 26.9999 19.0003C26.9999 20.1049 27.8954 21.0003 29 21.0003Z" fill="white"/>
  </g>
  <rect x="1" y="1" width="36" height="36" rx="8" stroke="white" stroke-width="2"/>
</svg>
