<svg width="22" height="22" viewBox="0 0 22 22" fill="none" xmlns="http://www.w3.org/2000/svg">
<path d="M9.71662 11.6509C9.6307 11.5657 9.56251 11.4643 9.51597 11.3526C9.46943 11.2409 9.44547 11.1211 9.44547 11.0001C9.44547 10.879 9.46943 10.7592 9.51597 10.6475C9.56251 10.5358 9.6307 10.4344 9.71662 10.3492L13.9241 6.15089C14.01 6.06568 14.0782 5.96429 14.1248 5.85259C14.1713 5.74088 14.1953 5.62107 14.1953 5.50006C14.1953 5.37905 14.1713 5.25923 14.1248 5.14753C14.0782 5.03582 14.01 4.93444 13.9241 4.84922C13.7524 4.67849 13.52 4.58266 13.2779 4.58266C13.0357 4.58266 12.8034 4.67849 12.6316 4.84922L8.42412 9.05672C7.90913 9.57235 7.61987 10.2713 7.61987 11.0001C7.61987 11.7288 7.90913 12.4278 8.42412 12.9434L12.6316 17.1509C12.8024 17.3202 13.0328 17.4157 13.2733 17.4167C13.3939 17.4174 13.5135 17.3943 13.6252 17.3487C13.7369 17.3031 13.8385 17.2358 13.9241 17.1509C14.01 17.0657 14.0782 16.9643 14.1248 16.8526C14.1713 16.7409 14.1953 16.6211 14.1953 16.5001C14.1953 16.379 14.1713 16.2592 14.1248 16.1475C14.0782 16.0358 14.01 15.9344 13.9241 15.8492L9.71662 11.6509Z" fill="#242A38" fill-opacity="0.9"/>
</svg>
