<svg width="22" height="22" viewBox="0 0 22 22" fill="none" xmlns="http://www.w3.org/2000/svg">
<path d="M14.1165 9.05673L9.90899 4.84922C9.73724 4.67849 9.50491 4.58266 9.26274 4.58266C9.02057 4.58266 8.78823 4.67849 8.61649 4.84922C8.53057 4.93444 8.46237 5.03582 8.41584 5.14753C8.3693 5.25923 8.34534 5.37905 8.34534 5.50006C8.34534 5.62107 8.3693 5.74088 8.41584 5.85259C8.46237 5.96429 8.53057 6.06568 8.61649 6.15089L12.8332 10.3492C12.9191 10.4344 12.9873 10.5358 13.0338 10.6475C13.0803 10.7592 13.1043 10.879 13.1043 11.0001C13.1043 11.1211 13.0803 11.2409 13.0338 11.3526C12.9873 11.4643 12.9191 11.5657 12.8332 11.6509L8.61649 15.8492C8.44387 16.0206 8.34642 16.2536 8.34556 16.4968C8.3447 16.7401 8.44051 16.9737 8.6119 17.1463C8.7833 17.3189 9.01624 17.4164 9.25949 17.4172C9.50275 17.4181 9.73637 17.3223 9.90899 17.1509L14.1165 12.9434C14.6315 12.4278 14.9207 11.7288 14.9207 11.0001C14.9207 10.2713 14.6315 9.57235 14.1165 9.05673Z" fill="#242A38" fill-opacity="0.9"/>
</svg>
